<?xml version="1.0" standalone="no"?>
<!DOCTYPE svg PUBLIC "-//W3C//DTD SVG 20010904//EN"
 "http://www.w3.org/TR/2001/REC-SVG-20010904/DTD/svg10.dtd">
<svg version="1.0" xmlns="http://www.w3.org/2000/svg"
 width="470.000000pt" height="470.000000pt" viewBox="0 0 470.000000 470.000000"
 preserveAspectRatio="xMidYMid meet">
<metadata>
Created by potrace 1.14, written by Peter Selinger 2001-2017
</metadata>
<g transform="translate(0.000000,470.000000) scale(0.100000,-0.100000)"
fill="#000000" stroke="none">
<path d="M140 3684 c-46 -20 -87 -59 -113 -109 -21 -40 -21 -48 -22 -720 0
-374 3 -720 7 -770 49 -578 394 -966 952 -1068 107 -20 331 -21 448 -3 224 36
433 135 588 278 l45 41 6 -74 c7 -86 25 -133 65 -173 39 -39 88 -59 154 -62
101 -4 177 41 220 131 19 39 19 78 20 1205 l0 1165 -24 50 c-41 88 -102 125
-206 125 -98 0 -160 -35 -203 -115 -22 -40 -22 -45 -27 -840 -5 -791 -6 -801
-27 -860 -36 -99 -72 -156 -152 -236 -158 -158 -347 -232 -596 -232 -208 1
-382 54 -521 159 -142 107 -243 280 -269 459 -4 22 -9 54 -11 70 -3 17 -5 334
-5 705 -1 431 -4 693 -11 724 -8 39 -21 60 -62 101 -33 33 -63 54 -85 58 -55
11 -134 7 -171 -9z"/>
<path d="M3157 3118 c-7 -4 -11 -236 -11 -772 l-1 -766 40 -1 c22 0 118 -1
213 -2 l172 -2 0 773 c0 728 -1 772 -17 773 -98 4 -387 2 -396 -3z"/>
<path d="M3705 3120 l-40 -5 0 -233 c0 -204 1 -232 15 -227 13 5 13 4 0 -7
-13 -11 -16 -50 -16 -253 0 -160 3 -242 10 -247 7 -5 7 -8 1 -8 -6 0 -10 -55
-11 -145 0 -79 3 -142 8 -139 5 3 5 10 2 16 -4 7 -2 8 5 4 9 -6 9 -11 -1 -23
-15 -18 -20 -261 -5 -270 5 -3 35 -5 66 -4 104 4 162 3 168 -3 3 -3 14 -1 24
4 12 7 19 6 22 -3 3 -6 6 -7 6 -2 1 6 28 9 65 9 49 -2 63 1 62 12 -1 7 -5 16
-9 20 -3 4 -3 14 2 23 9 19 8 32 -2 48 -4 6 -3 14 1 17 11 6 9 36 -3 55 -6 10
-4 12 6 6 12 -8 12 -6 0 8 -7 9 -9 17 -4 17 11 0 11 45 0 56 -4 4 -1 14 6 22
10 13 9 14 -3 7 -12 -7 -13 -6 -3 6 12 15 13 36 0 55 -3 6 -3 14 0 18 11 11
10 165 -1 159 -5 -4 -5 0 0 8 12 19 12 72 -1 81 -7 5 -6 8 1 8 12 0 13 105 1
116 -4 4 -1 14 6 22 10 13 9 14 -3 7 -12 -7 -13 -6 -3 6 12 15 12 36 0 56 -4
6 -3 14 3 18 14 9 1 27 -13 18 -7 -3 -4 3 6 14 12 14 15 23 7 28 -5 3 -7 12
-3 18 11 19 10 80 -1 96 -8 11 -8 13 2 7 6 -4 12 -3 12 3 0 5 -4 12 -9 15 -7
5 -8 41 -1 41 7 0 4 137 -2 141 -5 3 -5 11 -1 17 12 20 12 37 0 37 -8 0 -8 3
-2 8 24 17 13 38 -18 33 -5 -1 -6 3 -2 8 3 6 12 8 19 5 14 -5 17 39 3 52 -3 4
-3 12 0 18 10 16 10 86 0 93 -4 2 -3 11 4 19 12 15 19 14 -151 16 -34 0 -63
-1 -65 -4 -2 -2 -30 -1 -62 2 -32 3 -76 3 -98 0z m42 -29 c0 -11 -5 -18 -9
-15 -4 3 -5 11 -1 19 7 21 12 19 10 -4z m279 -13 c3 -4 -1 -5 -10 -4 -8 1 -18
5 -22 8 -3 4 1 5 10 4 8 -1 18 -5 22 -8z m-281 -37 c3 -5 2 -12 -3 -15 -5 -3
-9 1 -9 9 0 17 3 19 12 6z m161 -3 c3 -4 -1 -5 -10 -4 -8 1 -18 5 -22 8 -3 4
1 5 10 4 8 -1 18 -5 22 -8z m64 7 c0 -7 -30 -13 -34 -7 -3 4 4 9 15 9 10 1 19
0 19 -2z m-184 -50 c-1 -8 -5 -17 -8 -21 -5 -4 -4 16 1 34 3 9 9 -1 7 -13z
m240 -11 c1 -9 0 -13 -4 -10 -3 4 -7 14 -8 22 -1 9 0 13 4 10 3 -4 7 -14 8
-22z m-160 -20 c1 -9 0 -13 -4 -10 -3 4 -7 14 -8 22 -1 9 0 13 4 10 3 -4 7
-14 8 -22z m120 11 c-1 -8 -5 -17 -8 -21 -5 -4 -4 16 1 34 3 9 9 -1 7 -13z
m-261 -14 c-9 -8 -36 -10 -30 -2 2 4 11 8 20 8 8 0 13 -3 10 -6z m115 3 c0 -8
-19 -13 -24 -6 -3 5 1 9 9 9 8 0 15 -2 15 -3z m-79 -37 c-10 -9 -11 -8 -5 6 3
10 9 15 12 12 3 -3 0 -11 -7 -18z m145 -23 c1 -9 0 -13 -4 -10 -3 4 -7 14 -8
22 -1 9 0 13 4 10 3 -4 7 -14 8 -22z m40 11 c-1 -8 -5 -17 -8 -21 -5 -4 -4 16
1 34 3 9 9 -1 7 -13z m80 -31 c1 -9 0 -13 -4 -10 -3 4 -7 14 -8 22 -1 9 0 13
4 10 3 -4 7 -14 8 -22z m-280 -6 c3 -4 -1 -5 -10 -4 -8 1 -18 5 -22 8 -3 4 1
5 10 4 8 -1 18 -5 22 -8z m60 0 c3 -4 -1 -5 -10 -4 -8 1 -18 5 -22 8 -3 4 1 5
10 4 8 -1 18 -5 22 -8z m60 -34 c1 -9 0 -13 -4 -10 -3 4 -7 14 -8 22 -1 9 0
13 4 10 3 -4 7 -14 8 -22z m120 11 c-1 -8 -5 -17 -8 -21 -5 -4 -4 16 1 34 3 9
9 -1 7 -13z m-225 -22 c12 -16 12 -17 -2 -6 -9 7 -20 9 -24 5 -5 -4 -5 -1 -1
6 9 16 11 15 27 -5z m265 -9 c1 -9 0 -13 -4 -10 -3 4 -7 14 -8 22 -1 9 0 13 4
10 3 -4 7 -14 8 -22z m-320 -20 c1 -9 0 -13 -4 -10 -3 4 -7 14 -8 22 -1 9 0
13 4 10 3 -4 7 -14 8 -22z m120 11 c-1 -8 -5 -17 -8 -21 -5 -4 -4 16 1 34 3 9
9 -1 7 -13z m79 -14 c-9 -8 -36 -10 -30 -2 2 4 11 8 20 8 8 0 13 -3 10 -6z
m61 -3 c3 -4 -1 -5 -10 -4 -8 1 -18 5 -22 8 -3 4 1 5 10 4 8 -1 18 -5 22 -8z
m-191 -18 c3 -6 -1 -7 -9 -4 -18 7 -21 14 -7 14 6 0 13 -4 16 -10z m291 -5
c-1 -8 -5 -17 -8 -21 -5 -4 -4 16 1 34 3 9 9 -1 7 -13z m-119 -10 c0 -8 -4
-12 -9 -9 -5 3 -6 10 -3 15 9 13 12 11 12 -6z m-81 -30 c-1 -8 -5 -17 -8 -21
-5 -4 -4 16 1 34 3 9 9 -1 7 -13z m-112 -13 c3 -5 -1 -9 -9 -9 -8 0 -12 4 -9
9 3 4 7 8 9 8 2 0 6 -4 9 -8z m191 -1 c3 -5 2 -12 -3 -15 -5 -3 -9 1 -9 9 0
17 3 19 12 6z m122 -6 c0 -8 -4 -12 -9 -9 -5 3 -6 10 -3 15 9 13 12 11 12 -6z
m-241 -31 c1 -9 0 -13 -4 -10 -3 4 -7 14 -8 22 -1 9 0 13 4 10 3 -4 7 -14 8
-22z m164 0 c0 -8 -19 -13 -24 -6 -3 5 1 9 9 9 8 0 15 -2 15 -3z m56 -6 c3 -4
-1 -5 -10 -4 -8 1 -18 5 -22 8 -3 4 1 5 10 4 8 -1 18 -5 22 -8z m-300 -40 c3
-4 -1 -5 -10 -4 -8 1 -18 5 -22 8 -3 4 1 5 10 4 8 -1 18 -5 22 -8z m77 -13
c-7 -21 -12 -19 -10 4 0 11 5 18 9 15 4 -3 5 -11 1 -19z m41 17 c3 -5 -1 -9
-9 -9 -8 0 -12 4 -9 9 3 4 7 8 9 8 2 0 6 -4 9 -8z m61 -1 c-9 -8 -36 -10 -30
-2 2 4 11 8 20 8 8 0 13 -3 10 -6z m-139 -66 c-1 -8 -5 -17 -8 -21 -5 -4 -4
16 1 34 3 9 9 -1 7 -13z m-42 -14 c3 -5 -2 -15 -12 -22 -15 -12 -16 -12 -5 2
7 9 10 19 6 22 -3 4 -4 7 0 7 3 0 8 -4 11 -9z m162 -3 c3 -4 -1 -5 -10 -4 -8
1 -18 5 -22 8 -3 4 1 5 10 4 8 -1 18 -5 22 -8z m60 0 c3 -4 -1 -5 -10 -4 -8 1
-18 5 -22 8 -3 4 1 5 10 4 8 -1 18 -5 22 -8z m99 3 c-9 -8 -36 -10 -30 -2 2 4
11 8 20 8 8 0 13 -3 10 -6z m-220 -29 c-3 -3 -11 0 -18 7 -9 10 -8 11 6 5 10
-3 15 -9 12 -12z m-59 -17 c-1 -8 -5 -17 -8 -21 -5 -4 -4 16 1 34 3 9 9 -1 7
-13z m135 -2 c12 -16 12 -17 -2 -6 -9 7 -20 9 -24 5 -5 -4 -5 -1 -1 6 9 16 11
15 27 -5z m65 -29 c1 -9 0 -13 -4 -10 -3 4 -7 14 -8 22 -1 9 0 13 4 10 3 -4 7
-14 8 -22z m41 7 c0 -11 -5 -18 -9 -15 -4 3 -5 11 -1 19 7 21 12 19 10 -4z
m-297 -6 c0 -7 -30 -13 -34 -7 -3 4 4 9 15 9 10 1 19 0 19 -2z m200 -26 c0 -5
-4 -9 -8 -9 -5 0 -9 7 -9 15 0 8 4 12 9 9 4 -3 8 -9 8 -15z m-169 -12 c-10 -9
-11 -8 -5 6 3 10 9 15 12 12 3 -3 0 -11 -7 -18z m105 -12 c-1 -8 -5 -17 -8
-21 -5 -4 -4 16 1 34 3 9 9 -1 7 -13z m120 -11 c1 -9 0 -13 -4 -10 -3 4 -7 14
-8 22 -1 9 0 13 4 10 3 -4 7 -14 8 -22z m40 0 c1 -9 0 -13 -4 -10 -3 4 -7 14
-8 22 -1 9 0 13 4 10 3 -4 7 -14 8 -22z m-81 -16 c5 4 5 1 1 -6 -6 -10 -11
-10 -22 -1 -8 6 -14 14 -14 16 0 3 6 0 13 -6 8 -6 18 -7 22 -3z m-199 -10 c3
-4 -1 -5 -10 -4 -8 1 -18 5 -22 8 -3 4 1 5 10 4 8 -1 18 -5 22 -8z m60 0 c3
-4 -1 -5 -10 -4 -8 1 -18 5 -22 8 -3 4 1 5 10 4 8 -1 18 -5 22 -8z m219 -27
c3 -5 2 -12 -3 -15 -5 -3 -9 1 -9 9 0 17 3 19 12 6z m-315 -7 c0 -8 -19 -13
-24 -6 -3 5 1 9 9 9 8 0 15 -2 15 -3z m51 -11 c12 -16 12 -17 -2 -6 -9 7 -20
9 -24 5 -5 -4 -5 -1 -1 6 9 16 11 15 27 -5z m145 5 c3 -4 -1 -5 -10 -4 -8 1
-18 5 -22 8 -3 4 1 5 10 4 8 -1 18 -5 22 -8z m60 0 c3 -4 -1 -5 -10 -4 -8 1
-18 5 -22 8 -3 4 1 5 10 4 8 -1 18 -5 22 -8z m-140 -34 c1 -9 0 -13 -4 -10 -3
4 -7 14 -8 22 -1 9 0 13 4 10 3 -4 7 -14 8 -22z m201 -9 c0 -8 -4 -12 -9 -9
-5 3 -6 10 -3 15 9 13 12 11 12 -6z m-291 -17 c3 -4 -1 -5 -10 -4 -8 1 -18 5
-22 8 -3 4 1 5 10 4 8 -1 18 -5 22 -8z m194 8 c0 -3 -4 -8 -10 -11 -5 -3 -10
-1 -10 4 0 6 5 11 10 11 6 0 10 -2 10 -4z m-144 -42 c1 -9 0 -13 -4 -10 -3 4
-7 14 -8 22 -1 9 0 13 4 10 3 -4 7 -14 8 -22z m80 14 c4 -7 4 -10 -1 -6 -4 4
-15 2 -24 -5 -14 -11 -14 -10 -2 6 16 20 18 21 27 5z m119 3 c-9 -8 -36 -10
-30 -2 2 4 11 8 20 8 8 0 13 -3 10 -6z m60 0 c-9 -8 -36 -10 -30 -2 2 4 11 8
20 8 8 0 13 -3 10 -6z m-340 -40 c-9 -8 -36 -10 -30 -2 2 4 11 8 20 8 8 0 13
-3 10 -6z m359 0 c3 -5 -2 -15 -12 -22 -15 -12 -16 -12 -5 2 7 9 10 19 6 22
-3 4 -4 7 0 7 3 0 8 -4 11 -9z m-56 -26 c-3 -3 -9 2 -12 12 -6 14 -5 15 5 6 7
-7 10 -15 7 -18z m-182 -11 c1 -9 0 -13 -4 -10 -3 4 -7 14 -8 22 -1 9 0 13 4
10 3 -4 7 -14 8 -22z m121 1 c0 -8 -4 -12 -9 -9 -5 3 -6 10 -3 15 9 13 12 11
12 -6z m-217 -45 c0 -5 -2 -10 -4 -10 -3 0 -8 5 -11 10 -3 6 -1 10 4 10 6 0
11 -4 11 -10z m97 -5 c0 -8 -4 -12 -9 -9 -5 3 -6 10 -3 15 9 13 12 11 12 -6z
m119 -11 c1 -9 0 -13 -4 -10 -3 4 -7 14 -8 22 -1 9 0 13 4 10 3 -4 7 -14 8
-22z m100 14 c3 -4 -1 -5 -10 -4 -8 1 -18 5 -22 8 -3 4 1 5 10 4 8 -1 18 -5
22 -8z m-140 -34 c1 -9 0 -13 -4 -10 -3 4 -7 14 -8 22 -1 9 0 13 4 10 3 -4 7
-14 8 -22z m119 7 c3 -5 2 -12 -3 -15 -5 -3 -9 1 -9 9 0 17 3 19 12 6z m-199
-13 c3 -4 -1 -5 -10 -4 -8 1 -18 5 -22 8 -3 4 1 5 10 4 8 -1 18 -5 22 -8z
m-80 -34 c1 -9 0 -13 -4 -10 -3 4 -7 14 -8 22 -1 9 0 13 4 10 3 -4 7 -14 8
-22z m41 -1 c-4 -3 -1 -13 6 -22 11 -14 10 -14 -5 -2 -16 12 -16 31 -1 31 4 0
3 -3 0 -7z m118 -2 c3 -5 2 -12 -3 -15 -5 -3 -9 1 -9 9 0 17 3 19 12 6z m121
-17 c1 -9 0 -13 -4 -10 -3 4 -7 14 -8 22 -1 9 0 13 4 10 3 -4 7 -14 8 -22z
m-182 -10 c3 -8 2 -12 -4 -9 -6 3 -10 10 -10 16 0 14 7 11 14 -7z m-98 -30 c1
-9 0 -13 -4 -10 -3 4 -7 14 -8 22 -1 9 0 13 4 10 3 -4 7 -14 8 -22z m320 -20
c1 -9 0 -13 -4 -10 -3 4 -7 14 -8 22 -1 9 0 13 4 10 3 -4 7 -14 8 -22z m-56
12 c0 -2 -6 -9 -14 -15 -11 -9 -16 -9 -22 0 -4 7 -3 9 4 5 6 -3 13 -2 17 4 6
10 15 14 15 6z m-185 -15 c-9 -8 -36 -10 -30 -2 2 4 11 8 20 8 8 0 13 -3 10
-6z m60 0 c-9 -8 -36 -10 -30 -2 2 4 11 8 20 8 8 0 13 -3 10 -6z m-181 -39 c3
-5 -1 -9 -9 -9 -8 0 -12 4 -9 9 3 4 7 8 9 8 2 0 6 -4 9 -8z m121 -1 c-9 -8
-36 -10 -30 -2 2 4 11 8 20 8 8 0 13 -3 10 -6z m60 0 c-9 -8 -36 -10 -30 -2 2
4 11 8 20 8 8 0 13 -3 10 -6z m141 -17 c1 -9 0 -13 -4 -10 -3 4 -7 14 -8 22
-1 9 0 13 4 10 3 -4 7 -14 8 -22z m-280 -9 c-1 -8 -5 -17 -8 -21 -5 -4 -4 16
1 34 3 9 9 -1 7 -13z m200 -11 c1 -9 0 -13 -4 -10 -3 4 -7 14 -8 22 -1 9 0 13
4 10 3 -4 7 -14 8 -22z m-98 -29 c-3 -3 -9 2 -12 12 -6 14 -5 15 5 6 7 -7 10
-15 7 -18z m51 1 c9 -11 9 -16 -1 -22 -7 -4 -10 -4 -6 1 4 4 3 14 -3 22 -6 7
-9 13 -6 13 2 0 10 -6 16 -14z m-112 -11 c0 -8 -4 -12 -9 -9 -5 3 -6 10 -3 15
9 13 12 11 12 -6z m238 6 c3 -5 2 -12 -3 -15 -5 -3 -9 1 -9 9 0 17 3 19 12 6z
m-79 -27 c1 -9 0 -13 -4 -10 -3 4 -7 14 -8 22 -1 9 0 13 4 10 3 -4 7 -14 8
-22z m-162 -23 c3 -5 -2 -15 -12 -22 -15 -12 -16 -12 -5 2 7 9 10 19 6 22 -3
4 -4 7 0 7 3 0 8 -4 11 -9z m102 -3 c3 -4 -1 -5 -10 -4 -8 1 -18 5 -22 8 -3 4
1 5 10 4 8 -1 18 -5 22 -8z m140 -17 c0 -17 -3 -28 -6 -26 -5 3 -6 38 -1 53 4
10 7 -3 7 -27z m-200 -23 c3 -4 -1 -5 -10 -4 -8 1 -18 5 -22 8 -3 4 1 5 10 4
8 -1 18 -5 22 -8z m59 3 c-9 -8 -36 -10 -30 -2 2 4 11 8 20 8 8 0 13 -3 10 -6z
m-139 -37 c1 -9 0 -13 -4 -10 -3 4 -7 14 -8 22 -1 9 0 13 4 10 3 -4 7 -14 8
-22z m200 11 c-1 -8 -5 -17 -8 -21 -5 -4 -4 16 1 34 3 9 9 -1 7 -13z m-159
-12 c-4 -3 -1 -13 6 -22 11 -14 10 -14 -5 -2 -16 12 -16 31 -1 31 4 0 3 -3 0
-7z m63 -23 c0 -5 -4 -10 -10 -10 -5 0 -10 5 -10 10 0 6 5 10 10 10 6 0 10 -4
10 -10z m160 6 c0 -3 -4 -8 -10 -11 -5 -3 -10 -1 -10 4 0 6 5 11 10 11 6 0 10
-2 10 -4z m-264 -42 c1 -9 0 -13 -4 -10 -3 4 -7 14 -8 22 -1 9 0 13 4 10 3 -4
7 -14 8 -22z m201 4 c2 -17 0 -19 -7 -8 -5 8 -6 18 -4 22 8 12 10 10 11 -14z
m79 -13 c-1 -8 -5 -17 -8 -21 -5 -4 -4 16 1 34 3 9 9 -1 7 -13z m-201 -14 c-9
-8 -36 -10 -30 -2 2 4 11 8 20 8 8 0 13 -3 10 -6z m61 -3 c3 -4 -1 -5 -10 -4
-8 1 -18 5 -22 8 -3 4 1 5 10 4 8 -1 18 -5 22 -8z m-182 -36 c3 -5 -1 -9 -9
-9 -8 0 -12 4 -9 9 3 4 7 8 9 8 2 0 6 -4 9 -8z m121 -1 c-9 -8 -36 -10 -30 -2
2 4 11 8 20 8 8 0 13 -3 10 -6z m61 -3 c3 -4 -1 -5 -10 -4 -8 1 -18 5 -22 8
-3 4 1 5 10 4 8 -1 18 -5 22 -8z m108 4 c3 -5 -1 -9 -9 -9 -8 0 -12 4 -9 9 3
4 7 8 9 8 2 0 6 -4 9 -8z m32 -18 c1 -9 0 -13 -4 -10 -3 4 -7 14 -8 22 -1 9 0
13 4 10 3 -4 7 -14 8 -22z m-280 -9 c-1 -8 -5 -17 -8 -21 -5 -4 -4 16 1 34 3
9 9 -1 7 -13z"/>
<path d="M4360 3125 c0 -6 -27 -10 -62 -10 -50 0 -62 -3 -64 -17 -1 -10 2 -20
7 -24 8 -5 13 9 10 29 0 4 4 7 10 7 6 0 8 -7 5 -17 -6 -14 -3 -14 15 3 12 10
19 13 15 7 -4 -7 -3 -13 3 -13 5 0 12 6 14 13 4 9 6 9 6 -1 1 -8 6 -10 14 -5
19 12 38 12 31 1 -5 -7 -2 -8 7 -2 21 13 38 14 45 2 4 -6 10 -5 16 3 8 11 9
10 5 -3 -3 -9 1 -19 9 -22 10 -4 14 0 12 11 -2 11 4 18 15 18 9 0 17 -4 16
-10 -1 -5 -5 -9 -11 -7 -5 1 -8 -2 -6 -8 6 -20 23 -16 33 7 5 12 17 21 28 20
17 -1 17 -3 -3 -19 -17 -14 -18 -18 -7 -18 9 0 23 10 31 22 11 15 16 18 16 8
0 -13 2 -13 11 0 9 13 10 13 6 0 -2 -8 -9 -16 -15 -16 -22 -3 -23 -4 -10 -18
9 -10 15 -11 20 -2 6 8 8 8 8 -1 0 -20 -18 -24 -34 -7 -9 9 -16 11 -16 4 0 -6
-4 -8 -10 -5 -6 3 -7 -1 -4 -9 3 -9 10 -14 14 -11 4 2 17 -4 29 -14 18 -16 19
-20 6 -25 -9 -3 -13 -11 -9 -17 5 -8 9 -8 14 1 5 8 7 3 7 -13 -2 -24 -4 -25
-22 -12 -11 7 -19 18 -17 24 1 6 -2 11 -8 11 -19 0 -10 -30 14 -46 16 -10 23
-21 19 -31 -5 -12 -3 -14 8 -8 11 7 11 5 -1 -11 -8 -10 -19 -22 -25 -26 -7 -5
-6 -8 1 -8 5 0 16 6 24 13 11 9 11 8 0 -7 -12 -16 -13 -18 -1 -11 9 5 12 4 7
-3 -4 -6 -14 -8 -22 -5 -14 5 -14 3 -3 -15 10 -15 16 -18 21 -9 6 9 8 9 8 0 0
-20 -18 -24 -29 -6 -9 16 -10 16 -11 2 0 -17 23 -42 32 -34 2 3 5 -2 5 -10 0
-8 -4 -12 -9 -9 -13 8 -10 -10 5 -25 10 -11 9 -12 -1 -6 -16 8 -13 -26 3 -37
6 -5 4 -8 -5 -8 -12 0 -13 -2 -1 -9 11 -7 9 -10 -8 -16 -12 -3 -19 -11 -16
-16 4 -5 -1 -12 -9 -15 -21 -8 -20 -17 5 -32 19 -12 20 -11 15 5 -3 11 1 28
10 39 15 18 15 18 4 -3 -8 -17 -8 -29 1 -45 6 -13 8 -20 4 -16 -9 9 -35 -9
-35 -24 0 -6 7 -5 15 2 9 7 18 10 22 6 3 -3 0 -6 -8 -6 -11 0 -11 -2 1 -10 8
-5 10 -10 4 -10 -6 0 -11 -7 -11 -15 0 -8 5 -15 11 -15 6 0 5 -5 -2 -12 -13
-13 -16 -32 -4 -24 4 2 8 -4 8 -14 0 -10 -4 -16 -8 -14 -13 8 -9 -11 5 -25 10
-11 9 -12 -1 -6 -16 8 -13 -26 3 -37 6 -5 4 -8 -5 -8 -12 0 -13 -2 -1 -9 11
-7 9 -10 -8 -16 -12 -3 -19 -11 -16 -16 4 -5 -1 -12 -9 -15 -21 -8 -20 -17 5
-32 19 -12 20 -11 15 5 -3 11 1 28 10 39 15 18 15 18 4 -3 -8 -17 -8 -29 1
-45 6 -13 8 -20 4 -16 -9 9 -35 -9 -35 -24 0 -6 7 -5 15 2 9 7 18 10 22 6 3
-3 0 -6 -8 -6 -11 0 -11 -2 1 -10 8 -5 10 -10 4 -10 -6 0 -11 -7 -11 -15 0 -8
5 -15 11 -15 6 0 5 -5 -2 -12 -16 -16 -15 -31 1 -22 7 5 6 0 -3 -11 -12 -15
-12 -17 -1 -10 10 5 12 4 7 -4 -4 -6 -12 -9 -17 -6 -12 8 -11 -6 1 -25 7 -11
10 -11 10 -2 0 7 3 11 8 8 4 -2 7 224 7 502 l0 507 -110 0 c-65 -1 -113 4
-117 10 -5 6 -8 6 -8 0z"/>
<path d="M4183 3035 c0 -47 3 -85 8 -85 4 0 6 9 4 20 -3 15 5 26 25 39 17 10
27 21 23 24 -3 4 -16 1 -28 -7 -19 -13 -21 -12 -21 9 0 16 4 21 16 17 13 -5
13 -3 1 11 -11 14 -11 18 1 22 23 9 17 35 -7 35 -20 0 -21 -5 -22 -85z m27 71
c0 -3 -4 -8 -10 -11 -5 -3 -10 -1 -10 4 0 6 5 11 10 11 6 0 10 -2 10 -4z"/>
<path d="M4336 3093 c-4 -5 -20 -8 -34 -8 -21 -1 -27 -6 -28 -22 -1 -12 5 -24
14 -28 9 -3 12 0 9 9 -3 8 2 20 11 28 11 9 14 10 8 1 -7 -13 6 -18 17 -6 12
11 79 10 83 -2 5 -13 34 -16 34 -4 0 4 -9 11 -20 14 -11 3 -20 10 -20 15 0 10
-20 8 -39 -4 -8 -5 -16 -4 -20 3 -4 6 -11 8 -15 4z"/>
<path d="M4219 3071 c8 -5 10 -14 6 -21 -5 -8 -4 -11 2 -7 6 4 16 0 23 -7 9
-12 6 -18 -18 -30 -16 -8 -29 -23 -29 -33 0 -34 -3 -44 -11 -39 -4 2 -8 -42
-8 -99 0 -73 3 -106 12 -109 12 -5 13 18 1 30 -3 4 -2 16 4 27 6 10 7 17 2 14
-5 -4 -10 0 -10 7 0 9 7 12 16 8 14 -5 14 -3 3 10 -11 14 -10 18 6 27 11 6 22
7 26 4 3 -3 6 -2 6 4 0 19 -14 23 -35 9 -19 -13 -21 -12 -21 9 0 16 4 21 16
17 13 -5 13 -3 2 10 -11 14 -10 18 5 27 14 8 15 10 3 11 -12 0 -12 2 -2 9 17
10 17 21 3 31 -7 4 -2 11 14 18 15 7 24 8 20 2 -3 -5 -1 -10 5 -10 6 0 8 -5 4
-12 -4 -7 -3 -8 5 -4 6 4 9 12 6 17 -4 5 0 9 7 9 10 0 9 3 -2 11 -13 9 -13 10
0 6 9 -2 14 -13 12 -28 -2 -23 -2 -23 10 -4 7 11 12 27 13 35 0 9 7 14 19 12
10 -2 16 1 12 6 -3 5 1 9 9 9 8 0 15 -3 15 -7 0 -3 11 -6 24 -6 18 0 22 4 18
19 -4 14 -7 16 -13 5 -7 -10 -9 -10 -9 2 0 9 -3 11 -8 5 -10 -14 -32 -17 -32
-4 0 8 -4 8 -15 -1 -8 -6 -18 -9 -23 -6 -6 3 -9 0 -8 -7 1 -13 -6 -17 -29 -17
-10 0 -15 7 -13 17 2 10 -2 18 -9 18 -6 0 -15 3 -19 8 -4 4 -12 7 -18 7 -6 0
-5 -4 3 -9z"/>
<path d="M4465 3060 c3 -5 1 -10 -4 -10 -22 0 -26 -2 -34 -15 -4 -8 -16 -12
-26 -10 -11 2 -22 -3 -25 -11 -6 -16 10 -19 19 -4 4 6 11 8 16 5 5 -4 21 3 35
14 15 11 31 18 38 14 6 -4 5 1 -3 10 -15 18 -26 23 -16 7z"/>
<path d="M4499 3068 c-1 -5 -2 -13 -3 -20 0 -6 -9 -12 -19 -14 -10 -1 -27 -10
-38 -20 -10 -9 -22 -14 -26 -11 -3 4 -12 2 -19 -4 -17 -14 -35 -3 -27 16 6 18
-13 20 -23 3 -5 -7 -3 -8 6 -3 9 6 11 4 5 -5 -6 -10 -11 -9 -23 6 -14 19 -15
19 -8 0 4 -12 1 -23 -6 -28 -8 -5 0 -6 20 -3 24 4 32 2 32 -9 0 -16 40 -49 49
-41 3 3 -5 12 -17 21 -12 8 -20 20 -17 25 4 5 15 3 28 -6 27 -19 34 -19 34 0
0 10 -6 14 -15 10 -12 -5 -13 -3 -2 10 11 13 15 13 23 3 6 -10 7 -9 4 4 -4 12
-1 16 14 13 10 -2 19 0 19 6 0 5 5 9 11 9 5 0 7 -5 3 -12 -4 -6 -3 -8 4 -4 6
3 13 2 17 -3 3 -6 -4 -8 -15 -6 -14 3 -20 0 -17 -8 3 -7 11 -10 18 -8 8 2 23
5 34 7 11 1 22 3 24 3 6 2 -21 30 -27 29 -19 -2 -33 3 -28 10 2 4 1 14 -5 22
-5 8 -9 12 -10 8z"/>
<path d="M4462 2989 c-8 -12 -9 -19 -1 -19 5 0 7 -5 3 -11 -3 -6 -14 -9 -24
-6 -12 3 -17 0 -14 -8 10 -24 -13 -24 -44 -1 -18 13 -30 25 -27 28 3 2 -2 5
-10 5 -8 0 -15 -3 -15 -6 0 -12 -74 -5 -78 7 -5 17 -19 15 -19 -3 0 -8 4 -12
8 -10 4 3 10 -2 13 -11 5 -13 9 -14 22 -3 12 10 15 10 12 -1 -2 -7 3 -15 10
-17 7 -3 11 1 10 7 -4 15 29 22 38 9 3 -5 10 -7 15 -4 5 4 9 1 9 -4 0 -6 -6
-11 -12 -11 -9 0 -8 -4 2 -10 8 -5 23 -7 33 -4 9 3 17 0 17 -7 0 -8 3 -9 13 0
8 6 18 7 22 3 5 -4 5 2 1 13 -4 11 -4 16 0 12 4 -4 16 5 26 20 10 16 18 22 19
16 1 -7 3 -17 4 -23 1 -5 3 -13 4 -17 1 -5 5 -1 11 7 5 8 12 11 17 7 4 -5 1
-12 -7 -17 -11 -7 -12 -10 -2 -10 7 0 10 -5 7 -10 -4 -6 4 -5 19 1 l26 12 -30
22 c-16 12 -26 26 -22 30 4 5 2 5 -5 1 -6 -3 -18 2 -25 13 -14 19 -14 19 -26
0z"/>
<path d="M4465 2929 c-19 -35 -14 -46 12 -29 17 11 17 11 -2 5 -17 -5 -18 -4
-7 7 11 11 17 8 34 -15 11 -15 24 -25 29 -22 5 4 6 -1 3 -9 -3 -9 -1 -16 6
-16 6 0 9 4 5 9 -3 5 2 16 10 25 9 9 11 17 5 21 -5 3 -10 2 -10 -2 0 -5 -9 -9
-20 -10 -11 -1 -20 4 -20 11 0 8 -7 19 -15 26 -8 7 -12 16 -9 21 3 5 3 9 0 9
-3 0 -13 -14 -21 -31z"/>
<path d="M4235 2941 c3 -6 -3 -14 -12 -20 -12 -7 -13 -10 -4 -11 8 0 11 -6 7
-16 -3 -8 -2 -13 3 -10 4 3 16 -3 26 -14 20 -22 35 -26 35 -10 0 6 -7 10 -16
10 -10 0 -14 5 -10 16 4 10 2 13 -6 8 -7 -5 -8 -3 -3 6 5 9 4 11 -3 6 -8 -5
-10 -1 -5 10 6 16 7 16 19 -1 7 -10 11 -21 9 -25 -3 -5 2 -11 11 -14 11 -4 15
-2 11 8 -6 15 10 36 28 36 5 0 3 -5 -5 -11 -12 -8 -10 -9 9 -4 13 4 21 3 18
-2 -3 -5 3 -9 14 -9 19 0 20 1 2 14 -10 7 -19 17 -19 22 -1 6 -2 13 -3 16 0 3
-8 -2 -17 -10 -18 -18 -30 -20 -39 -6 -4 6 -10 8 -15 5 -5 -3 -11 -1 -15 5 -3
5 -11 10 -16 10 -6 0 -8 -4 -4 -9z"/>
<path d="M4387 2897 c-5 -14 -56 -15 -76 -2 -5 2 -7 -7 -5 -20 3 -28 4 -27
-48 -29 -34 -2 -69 -16 -39 -16 8 0 11 -6 7 -16 -4 -10 -2 -13 7 -8 6 4 2 -3
-11 -15 -17 -17 -20 -26 -13 -35 6 -7 8 -16 5 -19 -4 -3 3 -5 15 -4 27 2 27
14 -1 23 -18 5 -19 8 -6 15 8 5 23 21 33 35 15 24 15 26 2 21 -9 -3 -19 -2
-21 2 -3 5 5 8 17 7 13 -1 21 -7 19 -15 -2 -8 3 -11 12 -8 17 7 41 -27 31 -43
-3 -5 -1 -11 5 -15 5 -3 10 -3 11 2 0 4 2 18 5 31 3 17 0 21 -8 16 -7 -4 -9
-3 -5 1 4 5 -3 15 -15 22 l-23 14 25 -5 c14 -3 19 -3 12 0 -10 5 -10 9 0 22
11 13 11 14 -1 7 -10 -6 -12 -4 -7 4 6 9 13 8 29 -6 20 -17 20 -17 14 2 -7 19
-6 19 7 3 14 -19 27 -24 25 -10 -3 18 2 32 12 32 5 0 7 -5 4 -10 -4 -7 3 -9
19 -6 16 3 29 -1 34 -9 5 -10 12 -11 22 -5 12 8 13 10 1 10 -8 0 -11 3 -8 6
11 11 36 -16 30 -32 -4 -10 0 -12 13 -8 17 6 17 5 -1 -10 l-20 -17 20 3 c33 5
34 18 4 50 -17 20 -33 29 -43 25 -22 -9 -47 3 -39 17 4 7 2 7 -8 -1 -11 -9
-19 -9 -26 -2 -7 7 -12 6 -16 -4z"/>
<path d="M4393 2858 c2 -15 -33 -18 -51 -5 -9 7 -11 4 -9 -14 3 -17 11 -24 30
-26 16 -1 26 3 24 10 -1 7 6 11 15 11 14 -1 16 2 7 17 -11 22 -20 25 -16 7z"/>
<path d="M4423 2842 c0 -18 6 -29 14 -29 8 0 11 7 9 14 -3 8 -1 11 4 8 13 -8
13 5 0 25 -9 13 -10 13 -10 0 0 -12 -2 -12 -8 -2 -6 8 -9 3 -9 -16z"/>
<path d="M4482 2853 c-6 -2 -10 -9 -6 -14 3 -5 0 -9 -6 -9 -6 0 -8 -4 -5 -10
5 -9 -8 -14 -19 -7 -6 3 -54 -67 -49 -72 2 -3 18 12 37 32 19 20 40 37 47 37
11 0 11 -2 1 -9 -10 -6 -10 -10 2 -20 10 -8 16 -9 21 -1 3 5 2 10 -3 10 -5 0
-8 16 -7 35 1 19 1 35 1 34 -1 0 -7 -3 -14 -6z"/>
<path d="M4393 2818 c1 -7 -5 -13 -13 -13 -26 -1 -39 -15 -34 -38 3 -12 6 -27
6 -34 1 -7 8 -15 16 -18 9 -3 12 0 9 9 -3 8 1 20 9 27 23 19 35 46 28 63 -7
19 -25 22 -21 4z m9 -25 c-6 -3 -10 -9 -7 -13 3 -5 -4 -14 -15 -20 -11 -6 -20
-9 -21 -8 -6 24 -5 39 2 44 5 3 8 0 7 -7 -2 -6 4 -14 12 -17 8 -2 12 -1 8 3
-4 5 -3 14 4 22 6 7 14 11 17 7 3 -4 0 -9 -7 -11z"/>
<path d="M4269 2790 c5 -8 6 -21 4 -28 -4 -11 -2 -11 16 0 12 7 21 16 21 21 0
4 -5 5 -12 1 -7 -5 -9 -2 -6 7 4 10 -1 15 -12 15 -13 0 -16 -5 -11 -16z"/>
<path d="M4519 2805 c-1 -5 -1 -13 -1 -17 1 -3 -5 -11 -12 -17 -11 -9 -18 -8
-31 5 -13 14 -19 14 -28 4 -9 -10 -9 -11 3 -5 8 4 2 -4 -15 -19 -16 -14 -36
-23 -43 -21 -7 3 -10 0 -7 -5 3 -5 1 -18 -4 -29 -9 -16 -8 -18 9 -14 11 3 20
10 20 15 0 5 -5 6 -12 2 -7 -4 -8 -3 -4 4 8 13 36 5 36 -10 0 -5 5 -6 11 -3 6
5 4 11 -7 19 -15 11 -15 13 0 13 9 0 16 -4 16 -9 0 -5 4 -7 8 -4 12 7 38 -12
29 -21 -5 -4 -12 -1 -17 7 -6 9 -10 10 -10 3 0 -6 4 -14 9 -17 13 -8 42 4 36
14 -3 5 3 14 12 20 16 10 15 11 -5 7 -12 -3 -29 1 -37 10 -8 8 -15 10 -15 5 0
-5 -7 -9 -15 -9 -22 0 -18 14 5 20 11 3 27 -1 35 -10 9 -9 15 -10 15 -3 0 6 4
8 10 5 5 -3 8 0 5 7 -3 7 4 19 15 26 11 7 20 8 20 3 0 -5 -7 -11 -15 -15 -8
-3 -12 -12 -9 -21 3 -8 10 -12 15 -9 5 3 7 9 4 14 -3 5 2 13 10 18 15 8 15 10
1 21 -9 8 -16 10 -16 5 0 -5 -5 -2 -10 6 -5 8 -10 11 -11 5z"/>
<path d="M4239 2773 c-10 -12 -10 -14 -1 -9 11 7 14 3 16 -26 1 -6 -7 -13 -16
-15 -10 -1 -26 -5 -35 -6 -17 -4 -18 -25 -19 -275 -1 -208 2 -272 12 -276 12
-5 13 18 1 30 -4 4 -1 14 6 22 10 13 9 14 -3 7 -13 -8 -13 -7 -1 8 9 11 10 17
2 17 -13 0 -10 22 4 32 6 5 5 8 -2 8 -7 0 -13 5 -13 12 0 6 3 8 7 5 8 -8 33
12 33 26 0 7 -4 7 -12 -1 -20 -20 -25 -14 -25 28 0 43 7 49 27 25 7 -8 17 -15
23 -15 5 0 2 9 -8 20 -10 11 -24 20 -32 20 -7 0 -13 5 -13 10 0 12 22 9 32 -5
5 -6 8 -4 8 5 0 13 1 13 11 0 8 -12 10 -11 7 5 -3 20 -28 28 -39 12 -4 -5 -10
-4 -13 2 -4 6 -2 11 5 11 9 0 9 3 0 14 -8 10 -9 16 -1 21 6 3 7 12 3 18 -9 14
-12 60 -4 51 3 -3 6 -11 6 -17 0 -5 6 -12 14 -15 9 -3 11 0 7 7 -4 7 -2 19 5
27 11 13 10 15 -2 12 -7 -1 -15 1 -16 6 -1 5 -7 13 -15 17 -10 7 -10 9 2 9 13
0 13 1 0 10 -13 9 -13 11 0 20 13 9 13 10 0 10 -12 0 -12 2 -2 9 8 4 14 12 14
17 -1 5 7 7 16 6 14 -3 14 -1 2 13 -10 12 -11 18 -1 28 10 9 11 8 6 -8 -6 -17
-4 -16 13 4 l20 24 7 -21 c3 -13 11 -19 17 -16 7 5 8 2 3 -6 -6 -10 -4 -12 9
-7 10 4 20 7 22 7 2 0 4 5 4 12 0 6 -3 8 -6 5 -12 -11 -43 13 -38 28 4 8 10
15 16 15 5 0 7 -4 4 -8 -2 -4 4 -13 15 -20 11 -7 19 -8 19 -2 0 5 0 12 0 15 0
3 -3 5 -7 6 -5 0 -14 5 -20 11 -9 7 -17 7 -27 -1 -15 -13 -32 1 -21 18 10 18
-13 21 -26 4z m-34 -72 c3 -5 2 -12 -3 -15 -5 -3 -9 1 -9 9 0 17 3 19 12 6z"/>
<path d="M4552 2755 c4 -15 -27 -56 -37 -47 -5 4 -5 2 -1 -5 9 -17 -31 -38
-47 -24 -7 5 -26 7 -42 5 -17 -3 -39 -6 -51 -6 -11 0 -21 -7 -21 -15 0 -8 6
-12 14 -9 9 4 11 1 7 -6 -5 -8 -2 -9 10 -5 10 4 21 7 24 7 4 0 1 4 -6 9 -11 7
-11 9 2 14 9 4 15 3 15 -1 -3 -21 3 -24 17 -6 8 10 12 13 8 5 -5 -9 -3 -12 4
-7 7 4 12 2 12 -4 0 -6 5 -8 12 -4 7 4 8 3 4 -4 -4 -7 -2 -12 3 -12 6 0 11 8
11 18 0 14 2 15 10 2 5 -8 10 -11 10 -7 0 4 10 3 21 -4 15 -8 19 -8 15 0 -4 6
-1 14 7 16 14 6 17 78 3 92 -4 5 -6 4 -4 -2z m3 -57 c-3 -12 -9 -26 -15 -32
-8 -8 -9 -5 -4 9 7 18 6 19 -12 5 -12 -9 -11 -5 5 13 30 33 31 33 26 5z"/>
<path d="M4252 2693 c-7 -7 -9 -13 -5 -13 4 -1 -1 -8 -12 -18 -26 -21 -27 -63
-3 -80 14 -10 16 -17 8 -27 -6 -7 -9 -19 -8 -26 2 -8 -5 -13 -15 -13 -13 2
-15 -1 -7 -11 8 -10 8 -15 0 -20 -8 -5 -8 -11 1 -21 10 -12 14 -12 20 -2 6 10
9 10 9 1 0 -7 9 -17 19 -23 16 -8 19 -7 16 8 -2 9 -4 19 -4 22 -1 3 -6 -2 -12
-10 -8 -12 -9 -9 -4 10 3 14 3 21 -2 15 -4 -5 -17 -11 -28 -12 -18 -2 -17 -1
3 9 13 7 21 17 18 25 -4 8 -1 11 5 7 8 -4 8 -1 1 13 -8 15 -7 22 9 31 10 7 19
18 19 24 0 9 -3 9 -12 0 -8 -8 -15 -9 -25 0 -11 9 -10 13 4 24 17 13 17 15 0
28 -15 11 -15 15 -3 25 11 9 16 9 21 0 6 -8 10 -7 16 2 7 12 9 12 9 0 0 -11 3
-11 14 -2 12 10 18 8 31 -12 8 -13 13 -33 10 -43 -4 -12 -1 -10 8 5 11 18 16
20 20 10 5 -12 7 -12 17 1 10 13 11 13 7 -2 -3 -9 0 -19 7 -21 8 -3 13 4 13
24 0 16 -5 25 -10 22 -6 -3 -21 -7 -34 -9 -21 -2 -25 2 -22 22 0 4 -5 11 -13
15 -10 7 -8 11 10 15 25 7 30 24 7 24 -8 0 -15 -4 -15 -10 0 -5 -10 -15 -22
-21 -18 -10 -24 -8 -38 8 -13 17 -18 18 -28 6z m-2 -73 c0 -5 -4 -10 -10 -10
-5 0 -10 5 -10 10 0 6 5 10 10 10 6 0 10 -4 10 -10z"/>
<path d="M4250 2653 c0 -5 5 -14 12 -21 9 -9 9 -15 0 -24 -17 -17 -15 -33 2
-19 21 17 32 -6 13 -27 -17 -19 -16 -74 1 -95 7 -8 9 -16 6 -19 -3 -3 1 -5 8
-4 7 0 14 -3 15 -8 2 -12 33 -29 40 -23 2 3 -15 25 -39 48 -23 23 -37 39 -29
34 11 -6 13 -4 8 8 -6 17 24 42 37 30 3 -3 6 -2 6 4 0 5 -10 15 -22 21 -13 6
-17 11 -10 11 9 1 9 7 -3 25 -9 13 -13 31 -9 42 4 10 4 16 -1 12 -4 -4 -14 -3
-22 3 -7 6 -13 7 -13 2z m46 -105 c4 -7 3 -8 -4 -4 -7 4 -12 2 -12 -5 0 -7 -3
-10 -6 -6 -6 5 3 27 11 27 2 0 7 -5 11 -12z"/>
<path d="M4301 2641 c-14 -25 3 -66 22 -55 9 5 9 4 0 -6 -10 -11 -9 -16 4 -25
17 -13 9 -40 -9 -29 -7 5 -8 2 -3 -6 6 -10 4 -12 -11 -6 -15 6 -16 5 -7 -5 14
-14 43 -21 42 -11 -3 21 3 32 16 32 8 0 15 5 15 10 0 6 -6 10 -14 10 -21 0
-28 17 -10 24 10 4 13 2 8 -6 -5 -8 -2 -9 12 -4 31 13 49 12 46 -2 -1 -8 3
-12 10 -9 7 2 12 11 10 21 -2 9 3 16 11 16 7 0 23 9 34 20 22 20 22 20 28 0
12 -37 27 0 16 38 -1 1 -10 -2 -21 -8 -14 -8 -25 -7 -40 2 -17 11 -22 10 -30
-2 -5 -8 -8 -21 -5 -28 9 -26 -6 -32 -38 -15 -26 13 -30 13 -20 1 11 -12 9
-14 -10 -13 -17 1 -22 8 -22 28 -1 39 -20 55 -34 28z m12 -18 c-5 -12 -3 -14
7 -8 9 6 11 4 5 -4 -5 -9 -11 -9 -17 -3 -6 6 -7 15 -4 21 11 17 16 13 9 -6z
m142 -13 c-5 -8 -11 -8 -17 -2 -6 6 -7 16 -3 22 5 8 11 8 17 2 6 -6 7 -16 3
-22z"/>
<path d="M4471 2591 c-11 -11 -23 -16 -27 -13 -4 4 -4 2 -1 -4 8 -14 -31 -57
-44 -49 -5 4 -9 2 -9 -2 0 -5 10 -14 21 -22 19 -11 21 -11 16 3 -4 10 -1 19 8
22 8 4 12 10 9 15 -3 5 -1 9 5 9 5 0 11 -3 14 -7 2 -5 2 -2 1 4 -2 7 3 16 10
20 12 8 30 43 21 43 -3 0 -14 -9 -24 -19z"/>
<path d="M4530 2590 c-8 -5 -17 -7 -20 -6 -3 2 -13 -5 -22 -16 -10 -10 -13
-18 -7 -18 8 0 8 -5 -1 -15 -7 -8 -16 -12 -21 -9 -5 3 -9 0 -9 -6 0 -6 -5 -8
-12 -4 -7 4 -8 3 -4 -5 4 -6 12 -9 17 -6 5 4 9 1 9 -5 0 -7 5 -6 14 2 8 7 11
18 8 23 -2 6 1 4 9 -2 7 -7 20 -13 28 -13 11 0 10 4 -5 15 -10 8 -14 15 -9 15
6 0 4 4 -3 8 -9 6 -5 12 15 20 26 11 27 11 9 -3 -18 -13 -15 -19 6 -16 4 0 5
-5 2 -13 -3 -7 2 -19 10 -26 9 -7 13 -17 9 -24 -3 -6 -2 -7 3 -3 11 10 14 68
3 61 -14 -8 -21 17 -9 31 13 16 0 27 -20 15z"/>
<path d="M4377 2545 c2 -8 -4 -18 -15 -24 -15 -8 -19 -19 -16 -43 3 -30 2 -31
-9 -13 -7 11 -19 21 -28 23 -11 1 -5 -11 18 -34 22 -23 31 -40 25 -46 -13 -13
-55 9 -46 23 4 7 -1 7 -15 0 -11 -7 -21 -8 -21 -4 0 4 -5 0 -11 -10 -6 -10
-16 -14 -22 -10 -7 3 -4 -2 5 -13 11 -13 14 -24 8 -34 -7 -11 -12 -10 -27 9
l-19 24 0 -31 c0 -24 3 -29 12 -21 8 7 14 6 19 -2 6 -8 10 -7 17 4 5 9 15 14
24 10 14 -5 14 -3 3 16 -8 11 -18 21 -24 21 -5 0 -3 4 5 10 9 6 20 5 29 -3 12
-10 14 -9 8 8 -7 19 -7 19 8 1 8 -10 12 -23 9 -27 -3 -5 0 -9 6 -9 7 0 9 7 6
16 -3 8 -2 12 3 9 14 -8 81 27 74 38 -3 6 -1 7 5 3 14 -8 15 3 4 22 -6 9 -12
6 -20 -13 -11 -24 -42 -26 -42 -3 0 5 4 7 9 3 6 -3 9 3 8 14 0 11 -6 17 -12
14 -5 -4 -7 -2 -2 2 14 17 48 12 63 -9 12 -17 14 -18 14 -3 0 19 15 23 25 7 4
-7 12 -7 24 0 10 5 21 6 25 3 3 -3 6 -1 6 6 0 7 5 9 11 5 8 -4 7 -9 -2 -15 -7
-4 -10 -11 -6 -16 5 -4 12 -1 17 7 5 8 12 11 17 6 4 -4 0 -12 -9 -17 -10 -5
-15 -16 -12 -24 4 -8 10 -12 15 -9 5 3 7 9 4 14 -3 5 3 14 12 19 17 11 17 11
0 22 -9 5 -15 14 -12 19 3 5 1 11 -5 15 -5 3 -10 2 -10 -3 0 -5 -7 -9 -15 -9
-8 0 -15 5 -15 11 0 6 -4 5 -9 -2 -12 -20 -66 -21 -92 -1 -20 15 -19 46 2 34
5 -4 9 -2 9 3 0 5 -9 12 -19 15 -13 3 -18 1 -14 -8z"/>
<path d="M4381 2471 c-8 -5 -9 -11 -3 -15 5 -3 12 1 16 9 6 17 6 18 -13 6z"/>
<path d="M4432 2445 c-7 -14 -18 -28 -26 -31 -12 -5 -13 -9 -3 -19 10 -11 15
-10 30 3 13 12 15 17 5 24 -10 6 -10 8 0 8 7 0 11 4 8 8 -2 4 4 8 14 8 10 0
17 -3 15 -6 -1 -3 3 -11 11 -18 9 -8 14 -9 14 -2 0 6 5 8 11 4 7 -4 7 2 -1 17
-16 31 -25 39 -16 15 5 -16 4 -17 -9 -6 -8 7 -15 9 -15 5 0 -4 -6 -2 -13 4
-11 8 -16 5 -25 -14z"/>
<path d="M4554 2433 c14 -25 -56 -39 -76 -16 -11 14 -30 18 -26 6 2 -5 -5 -19
-14 -31 -15 -22 -17 -23 -41 -8 -22 15 -26 15 -50 -5 -27 -20 -53 -18 -41 4 4
7 4 9 -1 5 -4 -4 -15 -2 -23 5 -13 11 -14 9 -2 -13 19 -34 19 -70 0 -80 -13
-8 -13 -9 1 -10 22 0 44 26 29 35 -15 9 -12 26 4 23 8 -2 22 6 30 17 l16 20
-7 -20 c-3 -11 -3 -17 2 -13 4 4 14 3 22 -3 9 -8 13 -8 13 -1 0 6 -4 14 -10
17 -5 3 -10 12 -10 18 0 8 3 8 9 -1 4 -8 12 -13 17 -13 5 1 9 -11 9 -26 1 -15
6 -28 12 -30 7 -3 10 6 8 22 -1 16 3 29 11 32 8 3 11 9 8 14 -3 5 0 9 6 9 7 0
9 -8 5 -19 -4 -14 -1 -19 9 -17 18 3 34 16 19 16 -16 0 -24 28 -10 36 7 4 9 4
5 -1 -4 -4 -1 -14 7 -21 16 -17 26 -18 23 -3 -2 6 3 14 10 16 6 3 12 -1 12 -7
0 -10 3 -10 15 0 12 10 13 8 10 -11 -3 -12 -9 -27 -15 -33 -8 -8 -9 -5 -4 9 5
16 4 18 -6 8 -7 -6 -19 -9 -26 -6 -10 4 -12 0 -8 -11 4 -9 9 -15 12 -12 2 3
14 1 25 -5 14 -8 18 -8 13 0 -4 6 -1 14 7 16 15 6 17 79 2 92 -4 5 -5 3 -1 -4z"/>
<path d="M4513 2375 c0 -8 4 -12 9 -9 5 3 6 10 3 15 -9 13 -12 11 -12 -6z"/>
<path d="M4434 2341 c0 -11 3 -18 7 -15 4 2 10 -3 13 -12 5 -13 9 -14 21 -4 8
7 15 20 15 29 -1 13 -3 13 -12 -3 -10 -18 -11 -18 -27 3 -16 21 -17 21 -17 2z"/>
<path d="M4262 2345 c5 -5 -5 -16 -20 -25 -27 -17 -44 -70 -21 -70 5 0 8 4 5
9 -8 13 21 34 35 25 8 -5 7 -9 -5 -16 -17 -9 -13 -28 5 -28 6 0 7 4 4 10 -3 5
0 7 8 4 8 -3 14 1 14 10 0 8 -7 18 -16 21 -14 6 -13 8 3 21 11 8 14 14 7 14
-7 0 -10 4 -6 9 3 5 0 13 -7 17 -7 4 -10 4 -6 -1z m-2 -30 c0 -2 -10 -9 -22
-15 -22 -11 -22 -10 -4 4 21 17 26 19 26 11z"/>
<path d="M4335 2341 c-3 -6 -12 -8 -18 -5 -8 5 -8 3 0 -6 10 -11 9 -18 -5 -34
-13 -14 -13 -18 -2 -12 11 6 11 4 -1 -6 -16 -13 -19 -19 -19 -36 0 -11 -32
-12 -45 -1 -6 4 -17 4 -25 -1 -8 -6 -11 -10 -6 -10 5 0 3 -6 -3 -14 -8 -10 -9
-16 -1 -21 6 -3 8 -10 5 -15 -3 -5 4 -8 15 -7 11 1 20 7 20 15 0 7 -4 11 -8 8
-4 -2 -13 -1 -20 3 -8 4 -5 11 9 20 16 9 19 9 14 0 -5 -8 -4 -10 4 -5 6 4 14
0 17 -8 3 -9 10 -13 16 -10 5 3 4 12 -4 22 -9 11 -9 13 -1 9 7 -5 17 1 23 13
7 13 17 19 26 16 8 -3 20 -8 27 -11 8 -4 14 1 14 10 0 9 -6 14 -14 11 -7 -3
-18 4 -24 16 -6 11 -7 18 -1 14 5 -3 12 1 16 9 3 8 0 15 -7 15 -8 0 -7 4 3 10
8 5 12 12 8 15 -3 4 -9 1 -13 -4z"/>
<path d="M4360 2341 c0 -6 0 -12 1 -13 0 -2 -5 -16 -11 -32 -9 -26 -9 -27 5
-16 15 12 20 4 16 -22 0 -5 2 -8 7 -8 13 0 34 17 33 26 0 5 19 9 43 8 35 0 43
3 39 15 -2 9 3 5 11 -9 8 -14 16 -23 16 -20 6 23 5 52 0 55 -4 3 -19 -4 -33
-15 -17 -14 -28 -17 -32 -9 -4 5 -14 8 -22 5 -19 -8 -45 12 -36 28 3 6 3 8 -2
4 -4 -4 -14 -3 -22 3 -9 9 -13 8 -13 0z m40 -41 c0 -3 -4 -11 -9 -18 -6 -11
-10 -10 -16 5 -16 36 -15 43 6 30 10 -6 19 -14 19 -17z"/>
<path d="M4416 2269 c5 -9 -32 -31 -61 -35 -17 -3 -33 -6 -65 -14 -3 0 8 -8
23 -16 15 -8 25 -19 22 -24 -4 -6 -1 -10 4 -10 14 0 14 27 1 35 -6 4 -8 11 -4
16 3 5 10 7 15 3 5 -3 7 -9 5 -13 -3 -4 4 -12 15 -19 10 -7 19 -8 19 -3 0 6
-4 13 -10 16 -15 9 -12 26 4 23 8 -2 22 6 30 17 l16 20 -6 -20 c-6 -16 -4 -18
6 -8 7 6 19 9 28 6 12 -5 13 -3 5 12 -6 10 -20 19 -31 20 -12 1 -19 -2 -16 -6z"/>
<path d="M4470 2265 c0 -8 5 -15 10 -15 6 0 10 7 10 15 0 8 -4 15 -10 15 -5 0
-10 -7 -10 -15z"/>
<path d="M4527 2269 c-9 -6 -17 -8 -17 -4 0 3 -9 -4 -21 -16 -11 -11 -27 -18
-34 -15 -8 3 -17 1 -20 -5 -4 -5 -10 -7 -15 -4 -5 3 -11 1 -15 -5 -4 -6 -12
-7 -18 -3 -7 4 -7 0 1 -10 19 -22 6 -42 -16 -25 -9 8 -13 8 -9 2 9 -16 -21
-26 -41 -14 -14 8 -14 10 -2 10 12 0 11 3 -3 11 -13 8 -22 7 -33 -1 -7 -7 -14
-9 -14 -4 0 5 -4 3 -9 -5 -5 -8 -17 -16 -25 -18 -9 -2 -24 -5 -33 -6 -16 -3
-18 -17 -19 -115 0 -78 4 -113 12 -116 10 -4 12 20 4 32 -7 7 -5 29 3 40 6 7
6 12 0 12 -5 0 -10 7 -10 15 0 8 5 15 11 15 6 0 5 4 -3 9 -9 6 -10 11 -2 15 6
4 11 12 11 17 0 6 -4 8 -8 5 -5 -3 -9 1 -9 9 0 8 5 15 10 15 5 0 4 7 -3 15 -7
9 -10 18 -6 22 3 3 6 0 6 -7 0 -9 7 -7 23 6 l22 19 -19 -22 c-11 -13 -15 -23
-9 -23 5 0 19 10 31 23 38 41 64 57 61 40 -3 -19 2 -34 9 -29 5 3 9 -1 9 -9 0
-8 -5 -11 -10 -8 -5 3 -8 0 -5 -7 2 -8 17 -15 34 -17 27 -4 28 -3 10 10 -23
17 -14 37 14 32 11 -2 20 1 20 8 0 8 3 8 12 -1 17 -17 24 -15 25 9 2 18 0 19
-15 7 -12 -10 -11 -6 3 13 11 14 26 26 33 26 11 0 10 -4 -3 -13 -15 -11 -13
-13 14 -12 22 1 29 4 21 12 -13 13 -13 26 2 26 6 0 8 -3 5 -7 -10 -9 13 -33
31 -33 13 0 12 3 -4 15 -10 8 -14 15 -9 15 6 0 4 4 -3 8 -9 6 -5 12 15 20 26
11 27 11 9 -3 -18 -13 -15 -19 6 -16 4 0 5 -5 2 -13 -3 -7 2 -19 10 -26 9 -7
13 -17 9 -24 -3 -6 -2 -7 3 -3 11 10 14 68 3 61 -14 -8 -21 17 -9 31 14 17 0
26 -23 14z"/>
<path d="M4310 2239 c0 -5 5 -7 10 -4 6 3 10 8 10 11 0 2 -4 4 -10 4 -5 0 -10
-5 -10 -11z"/>
<path d="M4460 2182 c0 -7 -4 -11 -9 -7 -5 3 -13 0 -17 -6 -4 -8 -3 -9 4 -5 7
4 12 3 12 -2 0 -4 14 -8 30 -8 17 0 30 3 30 8 0 4 9 3 20 -4 11 -7 20 -16 20
-21 0 -4 -5 -5 -11 -1 -8 4 -8 1 0 -14 6 -12 11 -25 10 -29 -4 -23 3 -31 23
-28 16 4 19 2 10 -7 -14 -14 -16 -32 -4 -24 5 3 9 -1 9 -9 0 -8 -9 -17 -19
-21 -16 -5 -16 -7 -3 -20 8 -8 11 -22 8 -31 -5 -12 -3 -14 8 -8 11 7 11 5 -1
-11 -8 -10 -19 -22 -25 -26 -7 -5 -6 -8 1 -8 5 0 16 6 24 13 11 9 11 8 0 -7
-12 -16 -13 -18 -1 -11 9 5 12 4 7 -3 -4 -6 -14 -8 -22 -5 -14 5 -14 3 -3 -15
10 -15 16 -18 21 -9 6 9 8 9 8 0 0 -20 -18 -24 -29 -6 -9 16 -10 16 -11 2 0
-17 23 -42 32 -34 10 10 5 -31 -6 -44 -6 -8 -6 -12 -1 -9 6 4 10 -15 10 -52 0
-33 -4 -56 -9 -53 -5 4 -6 0 0 -8 5 -8 9 -27 10 -44 l2 -29 -14 24 c-14 23
-14 24 -9 3 7 -26 3 -28 -25 -10 -17 10 -22 9 -29 -1 -7 -11 -9 -10 -15 3 -3
9 -11 13 -17 9 -8 -4 -8 -8 -1 -13 6 -4 -11 -7 -38 -8 -31 0 -54 4 -61 13 -17
21 -34 17 -18 -3 13 -16 12 -17 -3 -4 -10 7 -15 17 -13 22 3 4 -4 7 -15 6 -24
-2 -25 -6 -4 -22 15 -11 15 -12 0 -12 -9 0 -16 5 -16 11 0 6 -5 4 -10 -4 -8
-12 -10 -12 -10 -1 0 11 -3 11 -14 2 -11 -9 -20 -9 -35 -2 -14 8 -21 8 -24 -2
-4 -9 -6 -9 -6 1 -1 7 -5 11 -9 8 -5 -3 -9 1 -9 9 0 8 3 15 7 15 4 0 7 7 7 15
0 8 -3 12 -6 10 -4 -2 -7 10 -7 26 -1 16 3 29 8 29 5 0 6 6 1 13 -13 21 -13
39 1 28 9 -7 17 -5 29 9 9 11 12 22 8 25 -5 3 -12 -2 -15 -11 -3 -8 -10 -12
-16 -9 -6 4 -8 10 -5 15 3 4 -1 11 -7 14 -7 3 -2 3 11 0 13 -3 21 -2 18 3 -8
12 10 39 20 30 4 -5 1 -12 -7 -17 -9 -6 -10 -10 -3 -10 31 0 24 45 -7 47 -11
1 -18 -2 -16 -6 7 -11 -12 -36 -21 -28 -4 5 -1 12 7 17 13 9 13 10 0 10 -12 0
-12 2 -2 9 8 4 14 12 14 17 -1 5 7 7 16 6 13 -3 14 -1 3 12 -7 8 -10 20 -6 26
4 6 -3 9 -17 7 -23 -4 -23 -4 -23 -168 l0 -164 60 0 c33 0 63 -4 67 -10 5 -7
8 -7 8 0 0 7 50 10 138 9 l138 -1 0 254 c-1 197 -4 252 -13 248 -19 -7 -37 33
-23 49 8 10 7 15 -5 20 -9 3 -14 10 -10 15 3 5 1 12 -5 16 -5 3 -10 2 -10 -3
0 -5 -7 -9 -15 -9 -8 0 -15 5 -15 11 0 6 -5 4 -10 -4 -9 -13 -11 -13 -20 0 -7
11 -10 11 -10 2z m-255 -281 c3 -5 2 -12 -3 -15 -5 -3 -9 1 -9 9 0 17 3 19 12
6z"/>
<path d="M4253 2138 c-38 -31 -40 -36 -39 -86 1 -30 -2 -56 -5 -58 -9 -5 -6
-24 4 -41 5 -7 5 -13 0 -13 -4 0 0 -5 9 -11 9 -5 15 -16 12 -23 -3 -8 0 -17 6
-21 8 -5 7 -11 -2 -23 -9 -11 -9 -13 -1 -9 16 10 38 -30 25 -46 -16 -22 -12
-55 6 -52 9 2 19 4 21 4 3 1 -4 8 -15 17 -10 8 -13 12 -5 8 9 -5 12 -3 7 4 -4
7 -4 12 1 12 4 0 9 11 9 25 1 14 -2 23 -6 20 -5 -3 -12 0 -16 6 -4 8 -3 9 4 5
7 -4 12 -2 12 3 0 6 -9 16 -19 23 -16 9 -17 16 -9 31 7 14 7 17 -1 13 -7 -4
-9 -1 -5 8 3 9 -3 17 -17 21 -15 5 -18 10 -9 15 6 4 12 11 12 16 0 5 4 8 9 7
5 -2 9 2 9 7 0 5 -7 10 -15 10 -24 0 -18 19 10 32 28 13 35 34 8 24 -10 -4
-14 -4 -10 0 4 4 -1 13 -11 21 -9 8 -11 12 -4 8 17 -9 38 5 22 15 -9 5 -9 9
-1 14 6 4 11 2 11 -4 0 -6 4 -8 10 -5 5 3 7 0 4 -8 -3 -8 2 -14 11 -14 8 0 15
5 15 11 0 6 5 4 11 -4 9 -13 10 -13 6 0 -2 8 -10 14 -16 13 -14 -4 -14 10 -1
23 5 5 6 15 1 22 -6 10 -18 5 -48 -20z m42 3 c-9 -8 -36 -10 -30 -2 2 4 11 8
20 8 8 0 13 -3 10 -6z"/>
<path d="M4370 2135 c4 -33 1 -42 -15 -42 -8 0 -15 5 -15 11 0 6 -5 4 -10 -4
-13 -20 -13 -33 0 -25 6 3 7 -1 4 -12 -4 -15 -3 -15 8 2 7 11 20 21 28 23 12
2 11 -1 -2 -11 -10 -8 -15 -17 -12 -20 4 -3 13 1 21 9 8 8 19 12 24 9 16 -11
9 7 -8 21 -17 13 -17 14 2 7 20 -6 20 -6 0 18 -11 13 -21 26 -23 29 -2 3 -3
-4 -2 -15z"/>
<path d="M4390 2140 c0 -4 6 -13 14 -19 14 -12 17 -52 3 -51 -4 0 -15 -6 -23
-15 -9 -8 -20 -13 -25 -9 -6 3 -17 0 -26 -8 -9 -7 -14 -8 -11 -3 4 6 0 21 -7
35 l-13 25 1 -27 c1 -14 5 -24 9 -22 3 2 4 -4 1 -14 -3 -12 1 -19 11 -19 9 0
16 4 16 9 0 5 5 6 12 2 7 -5 9 -2 4 7 -4 8 0 5 8 -5 14 -18 21 -15 17 7 -1 4
6 10 16 14 9 4 24 14 32 23 17 17 28 56 14 47 -5 -3 -15 -2 -22 2 -10 6 -9 10
4 14 9 4 14 3 11 -1 -3 -5 1 -9 8 -9 8 0 12 6 10 12 -5 12 -64 17 -64 5z"/>
<path d="M4464 2133 c4 -12 2 -24 -3 -27 -6 -4 -8 -13 -5 -21 5 -11 10 -12 24
-3 20 13 17 33 -3 21 -8 -5 -8 -2 1 9 10 13 9 18 -4 29 -15 12 -16 11 -10 -8z"/>
<path d="M4490 2142 c0 -2 8 -11 18 -20 10 -10 12 -13 5 -8 -8 5 -16 6 -20 2
-3 -3 -1 -6 6 -6 8 0 11 -6 7 -16 -4 -10 -2 -13 6 -8 7 5 8 3 4 -5 -5 -7 -14
-10 -22 -7 -19 7 -30 -14 -13 -25 20 -12 31 -11 23 3 -4 7 -3 8 4 4 7 -4 12
-1 12 6 0 10 3 9 10 -2 5 -9 5 -19 -2 -27 -21 -25 -1 -23 23 3 17 18 19 23 6
18 -9 -3 -18 -2 -18 2 -1 5 -3 23 -5 39 -2 17 -4 35 -6 42 -1 10 -38 15 -38 5z"/>
<path d="M4266 2075 c11 -7 16 -17 12 -21 -4 -4 -2 -14 5 -22 10 -13 9 -14 -8
-5 -28 14 -52 5 -29 -11 16 -12 11 -42 -5 -32 -4 3 -8 -1 -8 -9 0 -8 3 -12 7
-10 10 6 32 -44 24 -56 -3 -5 4 -21 15 -35 15 -19 19 -35 15 -65 -3 -23 -1
-39 6 -39 5 0 9 6 8 13 -2 6 4 12 12 12 8 0 14 -6 13 -12 -2 -7 2 -13 7 -13
17 0 11 26 -10 45 -14 13 -20 14 -20 5 0 -7 -3 -10 -7 -7 -3 4 2 17 13 29 18
20 18 21 1 15 -11 -4 -16 -3 -12 3 3 6 0 10 -7 10 -7 1 -3 6 10 13 l23 13 -25
12 c-17 8 -24 17 -20 27 4 10 2 15 -7 13 -8 -2 -14 6 -15 19 -1 12 2 22 5 21
20 -2 22 4 5 17 -17 15 -16 15 12 1 17 -8 35 -12 39 -8 4 4 2 -3 -4 -15 -6
-13 -8 -23 -4 -23 12 0 35 16 36 26 1 5 5 8 10 7 4 -2 7 2 7 8 0 6 -13 8 -30
5 -23 -3 -33 1 -41 15 -5 11 -7 23 -4 28 9 16 -5 37 -26 38 -21 2 -21 1 -3
-12z m26 -179 c7 4 8 2 4 -5 -9 -13 -26 -5 -25 12 0 9 2 8 6 -1 2 -6 10 -9 15
-6z"/>
<path d="M4426 2055 c-6 -18 2 -45 15 -45 11 0 7 23 -6 32 -6 5 -3 8 7 8 9 0
20 -4 23 -10 3 -5 1 -10 -5 -10 -6 0 -8 -5 -5 -10 5 -8 11 -8 20 0 11 9 17 6
30 -14 10 -14 22 -23 29 -20 6 3 2 -2 -8 -10 -11 -9 -14 -16 -7 -16 7 0 9 -5
6 -10 -4 -6 4 -6 19 1 21 10 23 14 11 26 -15 14 -9 47 6 37 5 -3 9 0 9 5 0 16
-16 13 -30 -4 -19 -23 -37 -1 -19 22 13 16 12 17 -3 5 -13 -10 -22 -11 -37 -2
-12 6 -21 15 -21 20 0 16 -27 11 -34 -5z"/>
<path d="M4397 2034 c12 -5 -26 -51 -39 -47 -9 3 -4 -25 7 -34 4 -4 5 -2 1 4
-5 9 -2 11 9 7 10 -4 14 -1 12 7 -2 8 -2 11 0 7 3 -5 9 -8 14 -8 11 0 7 23 -6
32 -15 12 7 10 25 -2 10 -7 11 -10 2 -10 -10 0 -10 -4 0 -19 7 -11 16 -17 20
-14 5 2 4 11 -3 19 -6 8 -9 14 -5 14 4 0 -1 11 -10 25 -9 14 -21 25 -28 24 -8
0 -7 -2 1 -5z"/>
<path d="M4467 1998 c-14 -20 -16 -20 -11 -3 5 16 4 17 -4 5 -13 -18 -5 -33
15 -26 8 3 12 2 9 -3 -3 -5 1 -11 9 -15 19 -7 19 -26 0 -26 -8 0 -15 -5 -15
-12 0 -6 3 -8 7 -5 10 11 32 -13 26 -29 -4 -10 0 -12 11 -8 15 6 15 8 0 33
-14 20 -14 23 -2 14 8 -7 18 -10 22 -6 4 4 4 0 0 -10 -3 -10 -1 -17 6 -17 6 0
9 4 5 9 -3 5 2 16 10 25 9 9 11 17 5 21 -5 3 -10 2 -10 -2 0 -14 -40 -13 -41
0 -5 71 -18 88 -42 55z m31 -23 c-3 -3 -9 2 -12 12 -6 14 -5 15 5 6 7 -7 10
-15 7 -18z"/>
<path d="M4282 1978 c-13 -13 -16 -29 -4 -27 26 4 34 -1 22 -16 -11 -13 -10
-14 5 -9 12 5 16 4 12 -3 -4 -6 0 -14 8 -17 13 -5 14 -2 4 15 -9 17 -8 20 2
14 8 -6 10 -4 4 5 -5 8 -4 11 3 6 6 -4 8 -14 5 -24 -5 -13 -3 -14 7 -5 7 6 19
9 26 6 9 -3 12 0 9 9 -3 8 -11 15 -18 16 -36 3 -68 10 -74 16 -3 3 -1 6 5 6 7
0 12 5 12 10 0 14 -13 13 -28 -2z"/>
<path d="M4403 1963 c-15 -5 -18 -33 -4 -33 5 0 11 9 14 20 3 11 4 20 4 19 -1
0 -8 -3 -14 -6z"/>
<path d="M4442 1948 c-7 -7 -12 -8 -12 -3 0 5 -6 1 -14 -10 -7 -10 -22 -19
-33 -20 -26 -1 -83 -45 -59 -45 18 0 21 -11 5 -27 -7 -7 -3 -16 15 -30 14 -11
23 -22 21 -25 -3 -3 1 -5 9 -5 9 0 13 12 13 34 -1 18 -5 33 -10 33 -4 0 -5 5
-1 12 4 7 3 8 -5 4 -6 -4 -9 -11 -6 -16 3 -4 -1 -10 -8 -13 -8 -3 -12 3 -12
17 1 22 24 69 25 51 0 -6 -6 -17 -12 -24 -11 -11 -10 -13 4 -8 11 4 21 0 26
-10 6 -11 11 -12 16 -4 4 6 3 11 -2 11 -15 0 -23 28 -10 36 7 4 8 3 4 -4 -4
-7 -3 -12 2 -12 5 0 13 10 16 23 l6 22 14 -24 c7 -13 15 -20 18 -15 3 5 3 3 2
-3 -2 -7 0 -13 4 -13 5 0 14 6 22 13 12 10 12 9 1 -5 -11 -15 -11 -18 0 -18
12 0 12 -2 1 -9 -11 -7 -10 -9 3 -14 9 -4 14 -3 11 2 -3 4 5 7 19 6 14 -2 26
3 29 12 5 11 2 13 -11 8 -32 -12 -38 -10 -38 10 0 11 -6 20 -14 20 -21 0 -25
24 -6 31 13 5 14 8 3 15 -17 12 -22 11 -36 -3z m28 -2 c0 -2 -7 -9 -15 -16
-13 -11 -14 -10 -9 4 5 14 24 23 24 12z m-100 -126 c0 -5 -4 -10 -10 -10 -5 0
-10 5 -10 10 0 6 5 10 10 10 6 0 10 -4 10 -10z"/>
<path d="M4419 1902 c-1 -4 -3 -18 -4 -31 -1 -13 -8 -27 -15 -31 -10 -6 -9 -9
1 -13 11 -4 11 -7 1 -15 -9 -6 -6 -12 13 -20 15 -7 24 -8 20 -2 -3 5 -1 10 6
10 6 0 3 8 -8 18 -10 9 -14 13 -7 9 7 -4 15 -4 18 1 3 6 -1 13 -10 16 -14 5
-11 26 4 26 14 0 32 -54 22 -64 -5 -5 -10 -17 -10 -25 1 -13 3 -13 11 2 6 9
15 14 21 11 8 -5 9 -1 5 10 -4 9 -3 14 2 11 5 -3 12 -1 15 3 3 5 -6 14 -20 21
-14 6 -23 14 -21 19 2 4 -7 17 -20 29 -13 12 -24 19 -24 15z"/>
<path d="M4519 1848 c-4 -20 -6 -24 -17 -46 -7 -12 -18 -19 -24 -16 -7 4 -8 3
-4 -4 7 -11 -8 -17 -29 -12 -5 1 -16 3 -22 3 -7 0 -13 4 -13 9 0 5 -6 6 -12 1
-15 -9 -33 -13 -72 -17 -16 -2 -35 -11 -42 -20 -9 -13 -13 -14 -16 -4 -3 7 -5
-1 -5 -18 0 -19 5 -31 14 -31 8 0 11 7 9 14 -4 9 -1 11 5 7 7 -4 9 1 5 17 -3
13 -3 18 0 12 4 -9 11 -10 23 -3 21 11 32 4 24 -16 -4 -10 0 -12 11 -8 12 4
13 11 6 24 -8 15 -6 18 8 16 9 -2 20 2 25 8 5 8 9 8 15 0 4 -6 15 -10 24 -8
14 2 16 -1 8 -16 -7 -13 -6 -20 6 -24 12 -5 15 -2 10 9 -4 10 5 22 27 35 17
11 31 22 30 25 -6 11 -3 28 4 22 3 -4 12 1 20 11 8 9 11 11 7 3 -5 -10 -3 -12
6 -6 8 5 11 4 6 -3 -3 -5 0 -13 6 -16 7 -3 2 -3 -11 0 -16 4 -21 2 -17 -5 4
-6 2 -9 -7 -5 -8 3 -14 -2 -14 -11 0 -19 1 -19 37 0 35 18 37 26 10 50 -11 10
-20 14 -20 9 0 -5 -5 -2 -10 6 -5 8 -10 12 -11 8z"/>
<path d="M4555 1760 c4 -6 -7 -8 -27 -6 -40 5 -63 -6 -63 -31 0 -18 -7 -20
-38 -8 -13 5 -16 3 -11 -8 3 -9 15 -14 29 -12 14 1 22 -2 19 -6 -3 -5 2 -6 10
-3 16 6 18 44 1 44 -5 0 -2 5 7 11 12 7 24 6 39 -2 17 -9 20 -8 14 2 -6 8 -4
10 4 4 9 -5 10 -10 2 -18 -6 -6 -11 -17 -11 -25 0 -10 5 -9 18 5 9 10 13 14 9
7 -5 -7 -2 -14 5 -17 9 -4 8 -6 -3 -6 -9 -1 -22 -8 -29 -16 -14 -17 0 -21 17
-4 9 9 11 7 9 -7 -2 -11 -10 -18 -18 -16 -8 1 -15 -5 -15 -13 0 -8 3 -13 5
-10 3 3 11 -3 18 -13 12 -16 12 -16 11 3 -1 12 3 19 11 17 10 -2 11 2 3 15 -5
10 -6 24 -2 33 4 8 7 29 6 45 -3 43 -4 45 -16 45 -5 0 -7 -5 -4 -10z"/>
<path d="M4225 1740 c-4 -6 -11 -7 -17 -4 -7 4 -8 2 -4 -5 4 -6 13 -10 20 -9
6 2 11 -1 11 -7 0 -5 -6 -10 -14 -10 -8 0 -15 -8 -17 -17 -1 -10 2 -18 8 -18
6 0 8 -7 4 -15 -3 -8 -1 -15 4 -15 14 0 21 18 10 25 -6 4 -8 11 -4 16 3 5 10
7 15 3 5 -3 6 -10 3 -16 -4 -6 -3 -8 2 -5 5 3 9 18 8 34 -1 15 -3 34 -3 41 -1
15 -17 16 -26 2z"/>
<path d="M4390 1735 c0 -7 -9 -17 -20 -20 -23 -7 -27 -22 -5 -22 8 0 15 4 15
9 0 5 11 14 25 20 30 14 32 23 5 25 -11 1 -20 -4 -20 -12z"/>
<path d="M4316 1724 c-9 -8 -14 -20 -11 -25 4 -5 1 -9 -4 -9 -6 0 -13 0 -15 0
-11 -2 -76 -73 -71 -78 3 -3 5 -2 5 2 0 4 9 2 21 -4 15 -9 24 -8 35 1 8 6 14
8 14 3 0 -5 4 -3 9 5 14 21 42 22 71 3 14 -9 36 -17 50 -18 30 -2 73 23 65 37
-4 5 -15 -1 -26 -13 -12 -13 -17 -17 -13 -9 5 11 3 13 -9 8 -17 -6 -42 24 -30
37 3 3 2 6 -4 6 -5 0 -15 -10 -21 -22 -6 -13 -11 -17 -11 -10 -1 7 -6 10 -13
6 -7 -4 -8 -3 -4 4 7 12 -32 38 -42 28 -3 -3 -2 -6 2 -6 4 0 2 -10 -5 -21 -9
-17 -13 -19 -20 -8 -13 21 -11 27 12 40 18 9 27 7 50 -10 16 -12 29 -18 29
-14 0 12 -16 35 -24 34 -20 -3 -24 1 -21 24 3 29 1 30 -19 9z m-53 -81 c-4
-11 -3 -14 5 -9 8 5 10 2 6 -8 -3 -9 -10 -16 -16 -16 -5 0 -6 5 -2 12 5 8 2 9
-11 4 -18 -7 -18 -6 0 14 22 24 26 25 18 3z m132 -13 c-3 -5 -1 -10 6 -10 7 0
10 -3 6 -6 -9 -9 -28 6 -22 17 4 5 8 9 11 9 3 0 2 -4 -1 -10z"/>
<path d="M4493 1725 c0 -8 4 -15 9 -15 4 0 3 -9 -4 -19 -7 -11 -14 -19 -17
-19 -20 2 -27 -5 -28 -24 -2 -21 -1 -21 8 -5 8 14 14 16 25 6 7 -6 12 -15 9
-19 -3 -5 -1 -11 5 -15 10 -6 11 -3 14 33 1 9 5 23 9 30 5 6 4 12 -1 12 -5 0
-9 7 -9 15 0 8 5 15 11 15 6 0 4 5 -4 10 -21 13 -27 12 -27 -5z m14 -60 c0 -8
-4 -15 -9 -15 -10 0 -11 14 -1 23 9 10 10 9 10 -8z"/>
<path d="M4387 1691 c-3 -12 1 -18 12 -17 9 0 15 -5 13 -12 -1 -8 2 -11 9 -6
9 5 10 2 5 -11 -5 -15 -4 -16 8 -6 8 7 13 20 11 29 -2 9 -4 19 -4 22 -1 3 -6
-2 -11 -10 -8 -13 -11 -11 -16 8 -8 27 -20 29 -27 3z"/>
<path d="M4290 1659 c0 -5 5 -7 10 -4 6 3 10 8 10 11 0 2 -4 4 -10 4 -5 0 -10
-5 -10 -11z"/>
</g>
</svg>
